<svg width="372" height="108" viewBox="0 0 372 108" fill="none" xmlns="http://www.w3.org/2000/svg">
<path d="M112.375 55.7578C112.375 59.987 110.727 64.043 107.793 67.0335C104.859 70.024 100.88 71.704 96.7304 71.704C92.5812 71.704 88.602 70.024 85.6681 67.0335C82.7342 64.043 81.0859 59.987 81.0859 55.7578H112.375Z" fill="#677079"/>
<path d="M61.9376 55.7578C61.9198 64.5844 65.1981 73.0938 71.1196 79.5909C77.0411 86.088 85.171 90.0959 93.8899 90.8161C102.609 91.5364 111.276 88.9161 118.166 83.4773C125.056 78.0386 129.663 70.1805 131.068 61.4685C131.372 59.5804 131.523 57.6706 131.52 55.7578H61.9376ZM96.7289 81.8143C90.866 81.8133 85.1779 79.7993 80.6 76.1037C76.022 72.408 72.8267 67.2506 71.5393 61.4794H121.919C120.629 67.2486 117.433 72.4035 112.855 76.0971C108.277 79.7906 102.59 81.803 96.7289 81.8035V81.8143Z" fill="#677079"/>
<path d="M74.8361 29.8789H69.211C67.6706 29.8789 66.4219 31.133 66.4219 32.68V48.5462C66.4219 50.0932 67.6706 51.3473 69.211 51.3473H74.8361C76.3765 51.3473 77.6252 50.0932 77.6252 48.5462V32.68C77.6252 31.133 76.3765 29.8789 74.8361 29.8789Z" fill="#677079"/>
<path d="M90.9533 18.2383H85.3282C83.7878 18.2383 82.5391 19.4924 82.5391 21.0394V48.5466C82.5391 50.0936 83.7878 51.3477 85.3282 51.3477H90.9533C92.4937 51.3477 93.7424 50.0936 93.7424 48.5466V21.0394C93.7424 19.4924 92.4937 18.2383 90.9533 18.2383Z" fill="#677079"/>
<path d="M107.078 22.0352H101.453C99.9128 22.0352 98.6641 23.2892 98.6641 24.8362V48.5471C98.6641 50.094 99.9128 51.3481 101.453 51.3481H107.078C108.619 51.3481 109.867 50.094 109.867 48.5471V24.8362C109.867 23.2892 108.619 22.0352 107.078 22.0352Z" fill="#677079"/>
<path d="M123.196 31.9258H117.57C116.03 31.9258 114.781 33.1799 114.781 34.7269V48.5474C114.781 50.0943 116.03 51.3484 117.57 51.3484H123.196C124.736 51.3484 125.985 50.0943 125.985 48.5474V34.7269C125.985 33.1799 124.736 31.9258 123.196 31.9258Z" fill="#677079"/>
<path d="M30.9455 86.9147C25.8428 86.9147 21.2139 85.7068 17.0588 83.2909C12.9766 80.875 9.73272 77.6171 7.32714 73.5174C4.99446 69.3444 3.82812 64.7322 3.82812 59.6808C3.82812 54.5561 4.99446 49.9439 7.32714 45.8442C9.73272 41.7444 12.9766 38.5232 17.0588 36.1805C21.2139 33.7646 25.8428 32.5566 30.9455 32.5566C34.9548 32.5566 38.6725 33.3253 42.0986 34.8627C45.5248 36.3269 48.477 38.4866 50.9555 41.3418L44.3949 47.9306C42.7911 46.0272 40.8229 44.5996 38.4903 43.6479C36.2305 42.623 33.7156 42.1105 30.9455 42.1105C27.6652 42.1105 24.7493 42.8792 22.198 44.4166C19.6466 45.8808 17.642 47.9307 16.184 50.5662C14.7261 53.2017 13.9971 56.2399 13.9971 59.6808C13.9971 63.1216 14.7261 66.1598 16.184 68.7954C17.642 71.4309 19.6466 73.5174 22.198 75.0548C24.7493 76.5922 27.6652 77.3609 30.9455 77.3609C33.7156 77.3609 36.2305 76.885 38.4903 75.9333C40.8229 74.9084 42.8276 73.4442 44.5042 71.5407L50.9555 78.1296C48.5499 80.9116 45.5977 83.0712 42.0986 84.6086C38.6725 86.146 34.9548 86.9147 30.9455 86.9147Z" fill="#677079"/>
<path d="M357.834 85.8156L333.56 59.1308L357.616 33.6538H369.534L342.745 61.7663L343.182 56.056L370.518 85.8156H357.834ZM324.594 85.8156V7.4082H334.435V85.8156H324.594Z" fill="#677079"/>
<path d="M290.024 86.9147C284.848 86.9147 280.183 85.7434 276.027 83.4007C271.872 80.9848 268.592 77.7269 266.186 73.6272C263.781 69.5275 262.578 64.8787 262.578 59.6808C262.578 54.5561 263.744 49.9439 266.077 45.8442C268.483 41.7444 271.69 38.5232 275.699 36.1805C279.782 33.7646 284.338 32.5566 289.367 32.5566C294.179 32.5566 298.407 33.6548 302.051 35.8511C305.769 38.0474 308.649 41.0856 310.69 44.9657C312.804 48.8458 313.861 53.2383 313.861 58.1434C313.861 58.8755 313.824 59.6808 313.751 60.5593C313.678 61.3646 313.533 62.3163 313.314 63.4145H269.467V55.1784H308.065L304.457 58.363C304.457 54.849 303.837 51.884 302.598 49.468C301.359 46.9789 299.609 45.0755 297.35 43.7577C295.09 42.3667 292.356 41.6712 289.149 41.6712C285.796 41.6712 282.843 42.4033 280.292 43.8675C277.741 45.3317 275.772 47.3816 274.387 50.0171C273.002 52.6527 272.31 55.7641 272.31 59.3513C272.31 63.0118 273.039 66.233 274.497 69.015C275.955 71.7238 278.032 73.8468 280.729 75.3842C283.426 76.8484 286.525 77.5805 290.024 77.5805C292.939 77.5805 295.6 77.0681 298.006 76.0431C300.484 75.0182 302.598 73.4808 304.348 71.4309L310.69 77.91C308.211 80.8384 305.15 83.0712 301.505 84.6086C297.933 86.146 294.106 86.9147 290.024 86.9147Z" fill="#677079"/>
<path d="M231.402 86.9147C226.227 86.9147 221.561 85.7434 217.406 83.4007C213.251 80.9848 209.971 77.7269 207.565 73.6272C205.16 69.5275 203.957 64.8787 203.957 59.6808C203.957 54.5561 205.123 49.9439 207.456 45.8442C209.862 41.7444 213.069 38.5232 217.078 36.1805C221.161 33.7646 225.717 32.5566 230.746 32.5566C235.558 32.5566 239.786 33.6548 243.43 35.8511C247.148 38.0474 250.027 41.0856 252.069 44.9657C254.183 48.8458 255.24 53.2383 255.24 58.1434C255.24 58.8755 255.203 59.6808 255.13 60.5593C255.057 61.3646 254.911 62.3163 254.693 63.4145H210.846V55.1784H249.444L245.836 58.363C245.836 54.849 245.216 51.884 243.977 49.468C242.738 46.9789 240.988 45.0755 238.729 43.7577C236.469 42.3667 233.735 41.6712 230.528 41.6712C227.174 41.6712 224.222 42.4033 221.671 43.8675C219.119 45.3317 217.151 47.3816 215.766 50.0171C214.381 52.6527 213.689 55.7641 213.689 59.3513C213.689 63.0118 214.418 66.233 215.876 69.015C217.333 71.7238 219.411 73.8468 222.108 75.3842C224.805 76.8484 227.903 77.5805 231.402 77.5805C234.318 77.5805 236.979 77.0681 239.385 76.0431C241.863 75.0182 243.977 73.4808 245.727 71.4309L252.069 77.91C249.59 80.8384 246.528 83.0712 242.884 84.6086C239.312 86.146 235.485 86.9147 231.402 86.9147Z" fill="#677079"/>
<path d="M171.039 86.9147C167.103 86.9147 163.531 86.1094 160.323 84.4988C157.189 82.815 154.674 80.5089 152.779 77.5805C150.883 74.6521 149.826 71.3211 149.608 67.5874V51.884C149.826 48.0771 150.883 44.746 152.779 41.8909C154.747 38.9625 157.298 36.693 160.433 35.0824C163.64 33.3986 167.176 32.5566 171.039 32.5566C175.777 32.5566 180.042 33.7646 183.832 36.1805C187.696 38.5964 190.721 41.8543 192.908 45.954C195.095 50.0537 196.188 54.6659 196.188 59.7906C196.188 64.9153 195.095 69.5275 192.908 73.6272C190.721 77.7269 187.696 80.9848 183.832 83.4007C180.042 85.7434 175.777 86.9147 171.039 86.9147ZM143.703 107.67V33.6548H153.544V47.3816L151.685 60.0102L153.544 72.7487V107.67H143.703ZM169.399 77.5805C172.679 77.5805 175.559 76.8118 178.037 75.2744C180.516 73.737 182.484 71.6505 183.942 69.015C185.4 66.3062 186.129 63.1948 186.129 59.6808C186.129 56.2399 185.4 53.1651 183.942 50.4564C182.484 47.7476 180.516 45.6612 178.037 44.197C175.559 42.6596 172.716 41.8909 169.508 41.8909C166.228 41.8909 163.349 42.6596 160.87 44.197C158.392 45.6612 156.46 47.7476 155.075 50.4564C153.69 53.1651 152.997 56.2765 152.997 59.7906C152.997 63.2315 153.653 66.3062 154.966 69.015C156.351 71.6505 158.282 73.737 160.761 75.2744C163.312 76.8118 166.192 77.5805 169.399 77.5805Z" fill="#677079"/>
</svg>
