<svg width="888" height="305" viewBox="0 0 888 305" fill="none" xmlns="http://www.w3.org/2000/svg">
<path d="M183.815 190.69C183.23 191.273 182.89 192.058 182.865 192.884C182.864 193.327 182.951 193.767 183.122 194.177C183.292 194.586 183.541 194.958 183.856 195.27C184.17 195.583 184.543 195.83 184.953 195.997C185.364 196.164 185.803 196.248 186.246 196.243H188.613C189.584 196.247 190.546 196.057 191.444 195.686C192.341 195.315 193.157 194.77 193.843 194.082C194.53 193.394 195.074 192.577 195.444 191.678C195.814 190.778 196.003 189.814 196 188.842C195.79 166.367 176.149 152.951 165.238 147.905C153.179 142.328 127.669 145.582 99.8395 144.187C72.0101 142.793 73.8667 127.459 77.1132 80.0518C80.3598 32.644 58.0967 4.75938 50.6774 1.04111C43.2581 -2.67715 42.3287 4.75938 42.3287 4.75938C39.0806 1.50465 33.5159 1.97081 33.0523 7.08336C32.5886 12.1959 47.4309 30.3216 38.1544 29.857C28.8779 29.3924 20.9929 37.293 20.0651 41.4759C19.3186 44.8456 6.51268 49.7208 1.91609 51.492C1.31627 51.7115 0.804902 52.1222 0.460511 52.661C0.116119 53.1999 -0.0422691 53.8371 0.00966381 54.4748L0.788683 69.9805C0.672904 71.7417 2.83184 73.3082 4.56434 73.61L34.4437 79.1221C-17.968 159.992 39.0822 214.37 39.0822 214.37L43.2565 296.169H37.4566C36.85 296.168 36.2498 296.293 35.6937 296.536C35.1376 296.779 34.6376 297.135 34.2252 297.58C33.8127 298.026 33.4967 298.552 33.2969 299.126C33.0971 299.7 33.0179 300.309 33.0643 300.916C33.1692 302.042 33.6932 303.087 34.532 303.844C35.3709 304.6 36.4631 305.013 37.5917 305H57.6325L64.2796 272.137C64.2976 272.05 64.3441 271.971 64.4116 271.913C64.4791 271.855 64.564 271.82 64.653 271.816C64.7419 271.811 64.8299 271.836 64.9033 271.886C64.9767 271.937 65.0313 272.01 65.0586 272.095L72.9389 297.1H70.8517C69.8118 297.101 68.8141 297.512 68.0757 298.246C67.3373 298.98 66.918 299.976 66.909 301.018C66.9335 302.085 67.3748 303.1 68.1381 303.845C68.9013 304.589 69.9255 305.004 70.9906 305H86.3897V227.401C86.3894 227.228 86.4263 227.058 86.4978 226.9C86.5693 226.743 86.6738 226.603 86.8041 226.49C86.9345 226.377 87.0877 226.293 87.2532 226.245C87.4187 226.196 87.5927 226.184 87.7633 226.209C109.835 229.536 125.633 221.747 130.368 219.001C130.533 218.906 130.719 218.853 130.909 218.844C131.099 218.836 131.289 218.874 131.461 218.954C131.634 219.035 131.785 219.155 131.902 219.306C132.018 219.457 132.097 219.634 132.131 219.821C135.154 235.492 148.542 244.58 148.542 244.58V296.634H141.584C141.075 296.633 140.57 296.738 140.103 296.941C139.635 297.145 139.215 297.443 138.867 297.817C138.52 298.191 138.253 298.632 138.084 299.114C137.914 299.596 137.846 300.107 137.883 300.617C137.972 301.57 138.417 302.455 139.128 303.095C139.839 303.735 140.764 304.083 141.72 304.07H162.457L170.342 275.719L178.69 297.099H176.835C176.325 297.098 175.821 297.203 175.353 297.406C174.886 297.61 174.465 297.908 174.118 298.282C173.771 298.656 173.504 299.097 173.335 299.579C173.165 300.061 173.097 300.572 173.134 301.082C173.223 302.035 173.667 302.92 174.378 303.56C175.089 304.2 176.014 304.548 176.97 304.535H191.677L192.605 239.932C173.124 229.242 177.762 209.258 179.154 191.596C180.545 173.934 158.746 153.021 158.746 153.021C187.967 160.921 190.284 189.737 190.284 189.737H186.109C185.683 189.736 185.261 189.82 184.867 189.984C184.474 190.147 184.116 190.387 183.815 190.69ZM41.863 8.47764C44.1817 7.54795 42.7903 14.0548 42.7903 14.0548C40.4716 12.1954 39.5438 9.40682 41.863 8.47764ZM41.1673 204.842C41.1673 204.842 10.3229 172.541 20.063 129.782C29.8031 87.0232 49.748 71.2215 47.8924 66.1089C46.0368 60.9964 40.4716 67.0381 37.4566 73.7775C37.4566 73.7775 8.23574 70.0592 6.8443 67.2706C5.45285 64.4821 4.0614 57.9752 8.23573 56.1164C12.4101 54.2575 21.2229 52.3981 24.4694 44.9616C27.7159 37.525 37.4566 35.6667 43.0224 35.2016C48.5881 34.7365 50.9074 34.2719 49.9796 28.2302C49.1356 22.7181 47.5173 14.4963 48.6484 9.92285C48.6799 9.79989 48.7449 9.68817 48.8363 9.60024C48.9277 9.51231 49.0417 9.45165 49.1656 9.42509C49.2894 9.39853 49.4183 9.40712 49.5375 9.44989C49.6568 9.49265 49.7618 9.56791 49.8407 9.66719C52.9945 13.5855 64.7893 29.183 70.3881 49.6095C76.8812 73.3129 59.256 131.409 80.5913 144.888C80.5913 144.888 49.9796 171.843 41.1673 204.842ZM51.4024 298.028C50.5857 298.029 49.8008 297.71 49.2141 297.141C48.6274 296.572 48.2849 295.796 48.2591 294.978L46.0379 225.526C46.0379 225.526 58.0972 247.37 60.4164 253.412C62.3789 258.526 56.3679 286.944 54.4745 295.556C54.3205 296.257 53.9318 296.885 53.3731 297.334C52.8144 297.784 52.1191 298.029 51.4024 298.028ZM157.175 298.028C156.485 298.028 155.822 297.753 155.334 297.264C154.846 296.774 154.571 296.111 154.571 295.419V252.946C156.426 250.622 163.847 263.171 165.239 265.959C166.41 268.306 161.339 289.417 159.703 296.046C159.563 296.612 159.239 297.115 158.781 297.474C158.323 297.833 157.757 298.028 157.175 298.028ZM172.66 188.343C174.052 205.074 166.63 219.945 175.908 230.636C185.185 241.328 187.039 240.862 187.039 246.904C187.039 252.397 185.889 290.15 185.68 296.973C185.676 297.119 185.642 297.263 185.58 297.396C185.519 297.529 185.432 297.648 185.323 297.746C185.215 297.845 185.088 297.92 184.95 297.968C184.812 298.016 184.666 298.036 184.521 298.026C184.294 298.004 184.079 297.915 183.903 297.769C183.727 297.624 183.599 297.429 183.535 297.21C181.798 291.759 171.545 260.616 160.136 248.763C148.096 236.251 135.624 225.882 137.571 197.422C137.607 196.984 137.553 196.543 137.414 196.126C137.274 195.709 137.053 195.325 136.761 194.996C136.47 194.668 136.116 194.401 135.719 194.214C135.323 194.026 134.892 193.92 134.454 193.903C134.015 193.886 133.578 193.958 133.168 194.115C132.759 194.272 132.385 194.51 132.069 194.815C131.753 195.12 131.503 195.487 131.332 195.891C131.161 196.296 131.074 196.732 131.075 197.171V197.287C131.224 201.665 131.27 208.906 129.99 210.189C128.135 212.048 112.365 222.273 94.2758 220.879C80.0737 219.782 75.8805 203.218 74.7301 196.148C74.5797 195.218 74.0856 194.378 73.3459 193.795C72.6061 193.213 71.6748 192.93 70.7368 193.004C69.7988 193.078 68.9228 193.502 68.2827 194.193C67.6426 194.884 67.2852 195.791 67.2815 196.734C67.2823 197.02 67.315 197.306 67.3789 197.585C68.9018 204.193 72.3983 216.155 78.5717 221.302C79.5542 222.115 80.34 223.14 80.8701 224.302C81.4003 225.463 81.6611 226.729 81.6328 228.005L79.9312 296.169C79.9219 296.542 79.7675 296.897 79.501 297.157C79.2345 297.418 78.8769 297.563 78.5047 297.563C78.5047 297.563 65.0539 244.58 59.4876 234.355C55.3038 226.668 49.0193 217.399 46.1573 213.278C45.6863 212.598 45.3863 211.815 45.2829 210.994C45.1796 210.174 45.2759 209.34 45.5637 208.565C48.2214 201.403 56.4868 180.781 67.8363 167.893C81.7512 152.092 86.8534 147.443 89.1721 149.302C91.4908 151.162 140.192 147.908 149.471 154.88C158.751 161.851 171.268 171.611 172.66 188.343Z" fill="#677079"/>
<path d="M43.5 52C46.5376 52 49 49.9853 49 47.5C49 45.0147 46.5376 43 43.5 43C40.4624 43 38 45.0147 38 47.5C38 49.9853 40.4624 52 43.5 52Z" fill="#677079"/>
<path d="M405.25 207.661L272 208V202.317C285.71 202.317 294.946 196.233 294.946 184.866V46.8457C294.946 35.2086 285.708 27.3614 272 27.3614V21.6781L338.487 21V26.6833C325.894 26.6833 313.131 34.2607 313.131 44.8143V183.376C313.131 194.202 320.126 197.446 331.041 197.446H364.355C392.337 197.446 393.182 185.596 406.613 154.745L409 154.545L405.25 207.661Z" fill="#677079"/>
<path d="M529.875 201.375C524.456 208.205 518.624 212 509.873 212C499.665 212 496.332 202.641 495.292 193.53H494.458C486.123 203.145 474.252 212 461.124 212C447.376 212 433 202.385 433 180.88C433 148.747 465.291 140.398 495.083 134.83V120.156C495.083 104.47 488.415 95.6142 475.5 95.6142C465.916 95.6142 459.251 99.4096 459.251 105.481C459.251 109.529 461.124 111.554 461.124 117.373C461.124 124.963 457.166 131.29 449.458 131.29C442.166 131.29 437.583 123.699 437.583 115.603C437.583 97.8905 455.292 86 476.958 86C499.456 86 518.624 96.373 518.624 127.999V186.191C518.624 192.516 519.873 198.334 524.249 198.334C526.75 198.334 528.623 195.297 529.875 193.779C531.124 192.008 533 193.021 533 195.045C533 196.313 531.333 199.602 529.875 201.375ZM495.083 142.675C473.833 146.47 457.375 157.856 457.375 178.1C457.375 191.258 463.834 197.583 471.957 197.583C482.79 197.583 495.082 184.174 495.082 176.835L495.083 142.675Z" fill="#677079"/>
<path d="M858.875 201.375C853.456 208.205 847.624 212 838.874 212C828.666 212 825.332 202.641 824.292 193.53H823.459C815.124 203.145 803.253 212 790.124 212C776.376 212 762 202.385 762 180.88C762 148.747 794.292 140.398 824.083 134.83V120.156C824.083 104.47 817.415 95.6142 804.5 95.6142C794.917 95.6142 788.251 99.4096 788.251 105.481C788.251 109.529 790.124 111.554 790.124 117.373C790.124 124.963 786.166 131.29 778.459 131.29C771.166 131.29 766.583 123.699 766.583 115.603C766.583 97.8905 784.293 86 805.958 86C828.457 86 847.624 96.373 847.624 127.999V186.191C847.624 192.516 848.873 198.334 853.25 198.334C855.75 198.334 857.624 195.297 858.875 193.779C860.124 192.008 862 193.021 862 195.045C862 196.313 860.333 199.602 858.875 201.375ZM824.083 142.675C802.833 146.47 786.375 157.856 786.375 178.1C786.375 191.258 792.834 197.583 800.957 197.583C811.789 197.583 824.082 184.174 824.082 176.835L824.083 142.675Z" fill="#677079"/>
<path d="M740.519 208H693.099C692.443 208 691.813 207.743 691.349 207.285C690.885 206.826 690.624 206.205 690.624 205.557V204.77C690.628 204.181 690.846 203.614 691.238 203.171C691.63 202.727 692.17 202.437 692.76 202.354C698.97 201.403 702.692 196.257 702.692 189.289V122.926C702.692 110.202 695.933 100.468 684.35 100.468C672.043 100.468 660.457 111.196 660.457 126.165V189.285C660.457 196.231 664.157 201.368 670.158 202.341C670.745 202.428 671.282 202.719 671.671 203.162C672.061 203.605 672.277 204.17 672.282 204.757V205.553C672.282 206.201 672.022 206.823 671.558 207.281C671.094 207.739 670.465 207.996 669.809 207.996H623.596C622.94 207.996 622.311 207.739 621.847 207.281C621.383 206.823 621.122 206.201 621.122 205.553V204.766C621.126 204.178 621.344 203.61 621.736 203.167C622.128 202.723 622.668 202.433 623.258 202.35C629.464 201.398 633.187 196.252 633.187 189.285V122.926C633.187 110.202 627.155 100.468 614.608 100.468C602.062 100.468 590.957 112.192 590.957 126.914V189.285C590.957 196.544 591.99 201.826 598.306 202.447C598.712 202.481 599.104 202.612 599.448 202.828C599.793 203.045 600.079 203.34 600.282 203.69C600.493 204.061 600.601 204.481 600.597 204.907C600.593 205.333 600.476 205.751 600.257 206.118C600.039 206.486 599.728 206.79 599.353 207.002C598.979 207.214 598.555 207.325 598.124 207.326H555.858C555.202 207.326 554.573 207.068 554.109 206.61C553.645 206.152 553.384 205.53 553.384 204.883V204.768C553.389 204.177 553.609 203.608 554.003 203.164C554.397 202.72 554.94 202.43 555.532 202.348C562.425 201.282 566.418 195.08 566.418 187.366V107.785C566.418 99.7996 560.522 101.266 553.621 101.69C553.284 101.709 552.947 101.661 552.63 101.547C552.313 101.433 552.023 101.257 551.777 101.028C551.532 100.8 551.336 100.524 551.202 100.218C551.069 99.912 551 99.5823 551 99.2492V98.2595C551 97.7556 551.158 97.2639 551.452 96.8521C551.746 96.4402 552.162 96.1283 552.643 95.959L580.412 86.1743C580.788 86.042 581.191 86.0014 581.586 86.0558C581.981 86.1103 582.357 86.2583 582.681 86.4871C583.006 86.716 583.27 87.019 583.45 87.3703C583.631 87.7215 583.723 88.1107 583.718 88.5046L583.455 110.074H584.178C589.487 103.088 608.578 86 626.438 86C640.919 86 652.744 94.2324 657.572 107.455H658.295C664.085 97.4754 676.394 86 695.702 86C713.075 86 729.97 98.2245 729.97 122.922V188.036C729.97 195.754 733.964 201.407 740.863 202.364C741.454 202.445 741.996 202.733 742.389 203.177C742.782 203.621 742.999 204.19 743 204.779V205.553C743.001 205.875 742.937 206.194 742.812 206.491C742.688 206.788 742.505 207.058 742.274 207.286C742.044 207.513 741.77 207.693 741.468 207.816C741.167 207.938 740.844 208.001 740.519 208Z" fill="#677079"/>
<path d="M299.52 282.053H277.481V303H272V256H277.481V276.21H299.52V256H305V303H299.52V282.053Z" fill="#677079"/>
<path d="M340 256H368.201V261.843H345.709V276.278H365.746V281.985H345.709V297.16H369V303H340V256Z" fill="#677079"/>
<path d="M412.139 256H417.805L436 303H429.99L425.584 291.251H404.302L399.897 303H394L412.139 256ZM423.584 285.88L414.943 262.849L406.304 285.88H423.584Z" fill="#677079"/>
<path d="M465 256H470.429V297.16H491V303H465V256Z" fill="#677079"/>
<path d="M523.679 261.843H510V256H543V261.843H529.325V303H523.683L523.679 261.843Z" fill="#677079"/>
<path d="M600.353 282.053H577.646V303H572V256H577.648V276.21H600.353V256H606V303H600.353V282.053Z" fill="#677079"/>
<path d="M637 279.499C637 265.914 645.928 256.006 657.968 256.006C660.878 255.934 663.762 256.547 666.378 257.792C668.994 259.037 671.266 260.877 673 263.158L669.326 267.291C666.275 263.551 662.542 261.845 658.195 261.845C649.264 261.845 642.652 269.326 642.652 279.499C642.652 289.672 649.264 297.15 658.195 297.15C662.545 297.15 666.275 295.38 669.326 291.639L673 295.773C671.263 298.069 668.985 299.924 666.359 301.181C663.733 302.438 660.836 303.06 657.912 302.995C645.928 302.992 637 293.081 637 279.499Z" fill="#677079"/>
<path d="M714.141 256H719.805L738 303H731.99L727.586 291.251H706.299L701.894 303H696L714.141 256ZM725.583 285.88L716.943 262.849L708.304 285.88H725.583Z" fill="#677079"/>
<path d="M766 256H781.616C792.026 256 798.313 262.176 798.313 272.382C798.313 279.7 795.114 284.871 789.505 287.22L799 303H792.765L784.129 288.564C783.328 288.63 782.528 288.698 781.613 288.698H771.723V302.998H766.002L766 256ZM781.444 282.991C788.766 282.991 792.601 279.096 792.601 272.382C792.601 265.667 788.768 261.843 781.444 261.843H771.723V282.991H781.444Z" fill="#677079"/>
<path d="M829 256H857.201V261.843H834.71V276.278H854.746V281.985H834.71V297.16H858V303H829V256Z" fill="#677079"/>
</svg>
